<?xml version="1.0" encoding="utf-8"?>
<!-- Generator: Adobe Illustrator 19.0.0, SVG Export Plug-In . SVG Version: 6.00 Build 0)  -->
<svg version="1.1" id="Layer_1" xmlns="http://www.w3.org/2000/svg" xmlns:xlink="http://www.w3.org/1999/xlink" x="0px" y="0px"
	 viewBox="-277.1 400.9 142 38.9" style="enable-background:new -277.1 400.9 142 38.9;" xml:space="preserve">
<style type="text/css">
	.st0{fill:#878787;}
	.st1{fill:#FF7F15;}
</style>
<g id="XMLID_1905_">
	<g id="XMLID_4198_">
		<path id="XMLID_4831_" class="st0" d="M-205.9,437.4c-0.8-0.4-1.4-1-1.9-1.8c-0.4-0.8-0.7-1.7-0.7-2.8v-6.2c0-1,0.2-2,0.7-2.7
			c0.5-0.8,1.1-1.4,1.9-1.8c0.8-0.4,1.8-0.7,2.8-0.7s2,0.2,2.8,0.7c0.8,0.4,1.5,1,1.9,1.8c0.4,0.8,0.7,1.7,0.7,2.7v6.2
			c0,1.1-0.2,2-0.7,2.8c-0.5,0.8-1.1,1.4-1.9,1.8c-0.8,0.4-1.8,0.7-2.8,0.7S-205.1,437.8-205.9,437.4z M-201.6,434.6
			c0.4-0.4,0.6-1,0.6-1.7v-6.4c0-0.7-0.2-1.3-0.6-1.7c-0.4-0.4-0.9-0.6-1.6-0.6c-0.6,0-1.1,0.2-1.5,0.6c-0.4,0.4-0.6,1-0.6,1.7v6.4
			c0,0.7,0.2,1.2,0.6,1.7c0.4,0.4,0.9,0.6,1.5,0.6C-202.5,435.2-201.9,435-201.6,434.6z"/>
		<path id="XMLID_4818_" class="st0" d="M-193.2,437.4c-0.8-0.4-1.4-1-1.9-1.8c-0.4-0.8-0.7-1.7-0.7-2.7v-6.5c0-1,0.2-1.9,0.7-2.7
			c0.4-0.8,1.1-1.4,1.9-1.8c0.8-0.4,1.7-0.6,2.8-0.6c1.1,0,2,0.2,2.8,0.6c0.8,0.4,1.4,1,1.9,1.7c0.4,0.7,0.7,1.6,0.7,2.6v0.1
			c0,0.1,0,0.1-0.1,0.2c-0.1,0.1-0.1,0.1-0.2,0.1l-2.7,0.1c-0.2,0-0.3-0.1-0.3-0.3v-0.3c0-0.6-0.2-1.1-0.6-1.5
			c-0.4-0.4-0.9-0.6-1.5-0.6c-0.6,0-1.1,0.2-1.5,0.6c-0.4,0.4-0.6,0.9-0.6,1.5v6.8c0,0.6,0.2,1.1,0.6,1.5c0.4,0.4,0.9,0.6,1.5,0.6
			c0.6,0,1.1-0.2,1.5-0.6c0.4-0.4,0.6-0.9,0.6-1.5v-0.3c0-0.2,0.1-0.3,0.3-0.3l2.7,0.1c0.2,0,0.3,0.1,0.3,0.2v0.2
			c0,1-0.2,1.9-0.7,2.6c-0.4,0.8-1.1,1.3-1.9,1.8c-0.8,0.4-1.7,0.6-2.8,0.6C-191.5,438-192.4,437.8-193.2,437.4z"/>
		<path id="XMLID_4814_" class="st0" d="M-172.8,421.6c0.1,0.1,0.1,0.1,0.1,0.2v2.3c0,0.1,0,0.1-0.1,0.2s-0.1,0.1-0.2,0.1h-3.5
			c-0.1,0-0.1,0-0.1,0.1v13.1c0,0.1,0,0.1-0.1,0.2c-0.1,0.1-0.1,0.1-0.2,0.1h-2.7c-0.1,0-0.1,0-0.2-0.1c-0.1-0.1-0.1-0.1-0.1-0.2
			v-13.1c0-0.1,0-0.1-0.1-0.1h-3.4c-0.1,0-0.1,0-0.2-0.1c-0.1-0.1-0.1-0.1-0.1-0.2v-2.3c0-0.1,0-0.1,0.1-0.2
			c0.1-0.1,0.1-0.1,0.2-0.1h10.5C-172.9,421.5-172.9,421.5-172.8,421.6z"/>
		<path id="XMLID_4557_" class="st0" d="M-163.9,437.6l-0.5-2.3c0-0.1-0.1-0.1-0.1-0.1h-4.4c-0.1,0-0.1,0-0.1,0.1l-0.5,2.3
			c0,0.2-0.2,0.2-0.3,0.2h-2.8c-0.2,0-0.3-0.1-0.2-0.3l4.2-15.8c0-0.2,0.2-0.2,0.3-0.2h3.4c0.2,0,0.3,0.1,0.3,0.2l4.2,15.8l0,0.1
			c0,0.1-0.1,0.2-0.3,0.2h-2.9C-163.7,437.8-163.8,437.7-163.9,437.6z M-168.3,432.6C-168.3,432.7-168.3,432.7-168.3,432.6l3.2,0
			c0,0,0.1,0,0.1,0c0,0,0-0.1,0-0.1l-1.6-6.6c0-0.1,0-0.1-0.1-0.1c0,0-0.1,0-0.1,0.1l-1.6,6.6C-168.4,432.6-168.4,432.6-168.3,432.6
			z"/>
		<path id="XMLID_4555_" class="st0" d="M-158.6,437.7c-0.1-0.1-0.1-0.1-0.1-0.2v-15.7c0-0.1,0-0.1,0.1-0.2c0.1-0.1,0.1-0.1,0.2-0.1
			h2.7c0.2,0,0.3,0.1,0.3,0.2l4.5,9.3c0,0,0.1,0.1,0.1,0.1c0,0,0,0,0-0.1l0-9.2c0-0.1,0-0.1,0.1-0.2c0.1-0.1,0.1-0.1,0.2-0.1h2.7
			c0.1,0,0.1,0,0.2,0.1c0.1,0.1,0.1,0.1,0.1,0.2v15.7c0,0.1,0,0.1-0.1,0.2c-0.1,0.1-0.1,0.1-0.2,0.1h-2.8c-0.1,0-0.2-0.1-0.3-0.2
			l-4.5-9.4c0,0-0.1-0.1-0.1-0.1c0,0,0,0,0,0.1l0,9.2c0,0.1,0,0.1-0.1,0.2c-0.1,0.1-0.1,0.1-0.2,0.1h-2.7
			C-158.4,437.8-158.5,437.8-158.6,437.7z"/>
		<path id="XMLID_4553_" class="st0" d="M-135.2,424.3c-0.1,0.1-0.1,0.1-0.2,0.1h-6.2c-0.1,0-0.1,0-0.1,0.1v3.6c0,0.1,0,0.1,0.1,0.1
			h3.9c0.1,0,0.1,0,0.2,0.1c0.1,0.1,0.1,0.1,0.1,0.2v2.3c0,0.1,0,0.1-0.1,0.2c-0.1,0.1-0.1,0.1-0.2,0.1h-3.9c-0.1,0-0.1,0-0.1,0.1
			v3.7c0,0.1,0,0.1,0.1,0.1h6.2c0.1,0,0.1,0,0.2,0.1c0.1,0.1,0.1,0.1,0.1,0.2v2.3c0,0.1,0,0.1-0.1,0.2c-0.1,0.1-0.1,0.1-0.2,0.1
			h-9.4c-0.1,0-0.1,0-0.2-0.1c-0.1-0.1-0.1-0.1-0.1-0.2v-15.7c0-0.1,0-0.1,0.1-0.2c0.1-0.1,0.1-0.1,0.2-0.1h9.4c0.1,0,0.1,0,0.2,0.1
			c0.1,0.1,0.1,0.1,0.1,0.2v2.3C-135.2,424.1-135.2,424.2-135.2,424.3z"/>
	</g>
	<g id="XMLID_4193_">
		<path id="XMLID_4197_" class="st1" d="M-251.3,438.3c0-0.7,0.1-5.6-4.2-5.6c-4.3,0-3.9,7,2.6,7
			C-251.7,439.8-251.3,438.9-251.3,438.3z"/>
		<path id="XMLID_4196_" class="st1" d="M-249.4,438.3c0-0.7-0.1-5.6,4.2-5.6c4.3,0,3.9,7-2.6,7C-249,439.8-249.4,438.9-249.4,438.3
			z"/>
		<path id="XMLID_4194_" class="st1" d="M-232.9,401.4l-12.6,7.5c-1,0.6-1,2.1,0,2.7l7.2,4.1c0.7,0.4,1.7-0.1,1.7-1v-2.2
			c0-1,0.5-1.9,1.3-2.5l2-1.3c0.9-0.6,2.1,0.1,2.1,1.2v12.1c0,1.2-1.3,1.9-2.3,1.3l-13.8-7.9c-1.9-1.1-4.2-1.1-6.1,0l-13.8,7.9
			c-1,0.6-2.3-0.1-2.3-1.3v-12c0-1.1,1.2-1.7,2.1-1.2l2.9,1.8c0.3,0.2,0.4,0.5,0.4,0.8v3.4c0,0.8,0.9,1.3,1.6,0.9l7.3-4.2
			c1-0.6,1-2.1,0-2.7l-12.6-7.5c-1-0.6-2.4-0.6-3.4,0l-4.9,2.9c-0.7,0.4-1.1,1.1-1.1,1.9V427c0,0.8,0.4,1.5,1.1,1.9l4.9,2.9
			c1.1,0.6,2.4,0.6,3.4,0l16.2-9.5c0.7-0.4,1.7-0.4,2.4,0l16.2,9.5c1.1,0.6,2.4,0.6,3.4,0l4.9-2.9c0.7-0.4,1.1-1.1,1.1-1.9v-20.9
			c0-0.8-0.4-1.5-1.1-1.9l-4.9-2.9C-230.6,400.7-231.9,400.7-232.9,401.4z"/>
	</g>
	<g id="XMLID_1907_">
		<path id="XMLID_4191_" class="st0" d="M-206,417.8c-0.8-0.4-1.4-1-1.9-1.8c-0.4-0.8-0.7-1.7-0.7-2.7v-6.5c0-1,0.2-1.9,0.7-2.7
			c0.4-0.8,1.1-1.4,1.9-1.8c0.8-0.4,1.7-0.6,2.8-0.6c1.1,0,2,0.2,2.8,0.6c0.8,0.4,1.4,1,1.9,1.7c0.4,0.7,0.7,1.6,0.7,2.6v0.1
			c0,0.1,0,0.1-0.1,0.2c-0.1,0.1-0.1,0.1-0.2,0.1l-2.7,0.1c-0.2,0-0.3-0.1-0.3-0.3v-0.3c0-0.6-0.2-1.1-0.6-1.5
			c-0.4-0.4-0.9-0.6-1.5-0.6c-0.6,0-1.1,0.2-1.5,0.6c-0.4,0.4-0.6,0.9-0.6,1.5v6.8c0,0.6,0.2,1.1,0.6,1.5c0.4,0.4,0.9,0.6,1.5,0.6
			c0.6,0,1.1-0.2,1.5-0.6c0.4-0.4,0.6-0.9,0.6-1.5v-0.3c0-0.2,0.1-0.3,0.3-0.3l2.7,0.1c0.2,0,0.3,0.1,0.3,0.2v0.2
			c0,1-0.2,1.9-0.7,2.6c-0.4,0.8-1.1,1.3-1.9,1.8c-0.8,0.4-1.7,0.6-2.8,0.6C-204.2,418.5-205.2,418.2-206,417.8z"/>
		<path id="XMLID_3673_" class="st0" d="M-192.7,418.2c-0.1-0.1-0.1-0.1-0.1-0.2v-6l0-0.1l-4-9.6c0,0,0-0.1,0-0.1
			c0-0.1,0.1-0.2,0.2-0.2h2.9c0.2,0,0.3,0.1,0.3,0.2l2.2,5.9c0,0,0,0.1,0.1,0.1s0.1,0,0.1-0.1l2.2-5.9c0-0.2,0.2-0.2,0.3-0.2h2.9
			c0.1,0,0.2,0,0.2,0.1c0,0.1,0,0.1,0,0.2l-4,9.6l0,0.1v6c0,0.1,0,0.1-0.1,0.2c-0.1,0.1-0.1,0.1-0.2,0.1h-2.7
			C-192.6,418.2-192.6,418.2-192.7,418.2z"/>
		<path id="XMLID_1917_" class="st0" d="M-174.5,417.1c-1,0.8-2.2,1.2-3.7,1.2h-5.2c-0.1,0-0.1,0-0.2-0.1c-0.1-0.1-0.1-0.1-0.1-0.2
			v-15.7c0-0.1,0-0.1,0.1-0.2c0.1-0.1,0.1-0.1,0.2-0.1h4.9c1.7,0,2.9,0.4,3.9,1.1c0.9,0.7,1.4,1.9,1.4,3.4c0,1.5-0.6,2.6-1.8,3.3
			c-0.1,0-0.1,0.1,0,0.1c1.4,0.8,2,2.1,2,3.8C-173.1,415.2-173.5,416.3-174.5,417.1z M-180.4,404.9v3.7c0,0.1,0,0.1,0.1,0.1h1.8
			c0.6,0,1.1-0.2,1.5-0.5c0.4-0.3,0.5-0.8,0.5-1.4c0-0.6-0.2-1.1-0.5-1.4c-0.3-0.3-0.8-0.5-1.5-0.5h-1.8
			C-180.4,404.8-180.4,404.8-180.4,404.9z M-176.9,414.9c0.3-0.4,0.5-0.9,0.5-1.5c0-0.7-0.2-1.2-0.5-1.6c-0.3-0.4-0.8-0.6-1.5-0.6
			h-2c-0.1,0-0.1,0-0.1,0.1v4c0,0.1,0,0.1,0.1,0.1h2C-177.7,415.4-177.2,415.2-176.9,414.9z"/>
		<path id="XMLID_1913_" class="st0" d="M-161.2,404.7c-0.1,0.1-0.1,0.1-0.2,0.1h-6.2c-0.1,0-0.1,0-0.1,0.1v3.6c0,0.1,0,0.1,0.1,0.1
			h3.9c0.1,0,0.1,0,0.2,0.1c0.1,0.1,0.1,0.1,0.1,0.2v2.3c0,0.1,0,0.1-0.1,0.2c-0.1,0.1-0.1,0.1-0.2,0.1h-3.9c-0.1,0-0.1,0-0.1,0.1
			v3.7c0,0.1,0,0.1,0.1,0.1h6.2c0.1,0,0.1,0,0.2,0.1c0.1,0.1,0.1,0.1,0.1,0.2v2.3c0,0.1,0,0.1-0.1,0.2c-0.1,0.1-0.1,0.1-0.2,0.1
			h-9.4c-0.1,0-0.1,0-0.2-0.1c-0.1-0.1-0.1-0.1-0.1-0.2v-15.7c0-0.1,0-0.1,0.1-0.2c0.1-0.1,0.1-0.1,0.2-0.1h9.4c0.1,0,0.1,0,0.2,0.1
			c0.1,0.1,0.1,0.1,0.1,0.2v2.3C-161.1,404.6-161.1,404.7-161.2,404.7z"/>
		<path id="XMLID_1908_" class="st0" d="M-151.8,418l-2.4-6.4c0-0.1-0.1-0.1-0.1-0.1h-1.5c-0.1,0-0.1,0-0.1,0.1v6.4
			c0,0.1,0,0.1-0.1,0.2c-0.1,0.1-0.1,0.1-0.2,0.1h-2.7c-0.1,0-0.1,0-0.2-0.1c-0.1-0.1-0.1-0.1-0.1-0.2v-15.8c0-0.1,0-0.1,0.1-0.2
			c0.1-0.1,0.1-0.1,0.2-0.1h5.7c0.9,0,1.7,0.2,2.4,0.6c0.7,0.4,1.3,1,1.7,1.7c0.4,0.7,0.6,1.6,0.6,2.6c0,1-0.2,1.9-0.7,2.6
			c-0.4,0.7-1.1,1.3-1.8,1.6c-0.1,0-0.1,0.1,0,0.2l2.7,6.7c0,0,0,0.1,0,0.1c0,0.1-0.1,0.2-0.3,0.2h-2.8
			C-151.6,418.3-151.8,418.2-151.8,418z M-155.8,404.9v4c0,0.1,0,0.1,0.1,0.1h2c0.6,0,1-0.2,1.4-0.6c0.4-0.4,0.5-0.9,0.5-1.5
			c0-0.7-0.2-1.2-0.5-1.5c-0.4-0.4-0.8-0.6-1.4-0.6h-2C-155.8,404.8-155.8,404.8-155.8,404.9z"/>
	</g>
</g>
</svg>
